<?xml version="1.0" encoding="UTF-8" standalone="no"?>
<svg
   xmlnsdc="http://purl.org/dc/elements/1.1/"
   xmlnscc="http://creativecommons.org/ns#"
   xmlnsrdf="http://www.w3.org/1999/02/22-rdf-syntax-ns#"
   xmlnssvg="http://www.w3.org/2000/svg"
   xmlns="http://www.w3.org/2000/svg"
   xmlnssodipodi="http://sodipodi.sourceforge.net/DTD/sodipodi-0.dtd"
   xmlnsinkscape="http://www.inkscape.org/namespaces/inkscape"
   viewBox="0 -256 1792 1792"
   id="svg3025"
   version="1.1"
   inkscapecersion="0.48.3.1 r9886"
   width="100%"
   height="100%"
   sodipodidocname="spinner_font_awesome.svg">
  <metadata
     id="metadata3035">
    <rdfRDF>
      <ccWork
         rdfabout="">
        <dcFormat>image/svg+xml</dcFormat>
        <dcType
           rdfresource="http://purl.org/dc/dcmitype/StillImage" />
      </ccWork>
    </rdfRDF>
  </metadata>
  <defs
     id="defs3033" />
  <sodipodiNamedview
     pagecolor="#ffffff"
     bordercolor="#666666"
     borderopacity="1"
     objecttolerance="10"
     gridtolerance="10"
     guidetolerance="10"
     inkscapepageopacity="0"
     inkscapepageshadow="2"
     inkscapewindow-width="640"
     inkscapewindow-height="480"
     id="namedview3031"
     showgrid="false"
     inkscapezoom="0.13169643"
     inkscapecx="896"
     inkscapecy="896"
     inkscapewindow-x="0"
     inkscapewindow-y="25"
     inkscapewindow-maximized="0"
     inkscapecurrent-layer="svg3025" />
  <g
     transform="matrix(1,0,0,-1,121.49153,1315.7966)"
     id="g3027">
    <path
       d="M 496,192 Q 496,132 453.5,90 411,48 352,48 q -60,0 -102,42 -42,42 -42,102 0,60 42,102 42,42 102,42 59,0 101.5,-42 Q 496,252 496,192 z M 928,0 Q 928,-53 890.5,-90.5 853,-128 800,-128 747,-128 709.5,-90.5 672,-53 672,0 672,53 709.5,90.5 747,128 800,128 853,128 890.5,90.5 928,53 928,0 z M 320,640 Q 320,574 273,527 226,480 160,480 94,480 47,527 0,574 0,640 q 0,66 47,113 47,47 113,47 66,0 113,-47 47,-47 47,-113 z M 1360,192 q 0,-46 -33,-79 -33,-33 -79,-33 -46,0 -79,33 -33,33 -33,79 0,46 33,79 33,33 79,33 46,0 79,-33 33,-33 33,-79 z M 528,1088 Q 528,1015 476.5,963.5 425,912 352,912 279,912 227.5,963.5 176,1015 176,1088 q 0,73 51.5,124.5 51.5,51.5 124.5,51.5 73,0 124.5,-51.5 Q 528,1161 528,1088 z m 464,192 q 0,-80 -56,-136 -56,-56 -136,-56 -80,0 -136,56 -56,56 -56,136 0,80 56,136 56,56 136,56 80,0 136,-56 56,-56 56,-136 z m 544,-640 q 0,-40 -28,-68 -28,-28 -68,-28 -40,0 -68,28 -28,28 -28,68 0,40 28,68 28,28 68,28 40,0 68,-28 28,-28 28,-68 z m -208,448 q 0,-33 -23.5,-56.5 -23.5,-23.5 -56.5,-23.5 -33,0 -56.5,23.5 -23.5,23.5 -23.5,56.5 0,33 23.5,56.5 23.5,23.5 56.5,23.5 33,0 56.5,-23.5 23.5,-23.5 23.5,-56.5 z"
       id="path3029"
       inkscapeconnector-curvature="0"
       style="fill:currentColor" />
  </g>
</svg>
